<?xml version="1.0" encoding="utf-8"?>
<!-- Generator: Adobe Illustrator 27.9.0, SVG Export Plug-In . SVG Version: 6.00 Build 0)  -->
<svg version="1.1" id="Layer_1" xmlns="http://www.w3.org/2000/svg" xmlns:xlink="http://www.w3.org/1999/xlink" x="0px" y="0px"
	 viewBox="0 0 42 42" style="enable-background:new 0 0 42 42;" xml:space="preserve">
<path d="M21,0.5C9.7,0.5,0.5,9.7,0.5,21S9.7,41.5,21,41.5S41.5,32.3,41.5,21S32.3,0.5,21,0.5z M27.1,21.3l-10,10.3
	C16.8,31.9,16.4,32,16,32c-0.4,0-0.8-0.1-1-0.4c-0.6-0.6-0.6-1.5,0-2.1l9-9.2l-9-9.2c-0.6-0.6-0.6-1.5,0-2.1c0.6-0.6,1.5-0.6,2.1,0
	l10,10.3C27.6,19.8,27.6,20.7,27.1,21.3z"/>
</svg>
