<svg enable-background="new 0 0 500 500" viewBox="0 0 500 500" xmlns="http://www.w3.org/2000/svg"><path d="m250 10c-132.55 0-240 107.45-240 240s107.45 240 240 240 240-107.45 240-240-107.45-240-240-240zm92.88 240.13-124.38 124.39-14.2-14.21 110.3-110.31-110.3-110.3 14.2-14.21 124.38 124.38-.14.14z"/><path d="m-544.31 250c0 132.55 107.45 240 240 240s240-107.45 240-240-107.45-240-240-240-240 107.45-240 240zm147.26 0-.14-.14 124.38-124.38 14.2 14.21-110.31 110.31 110.3 110.31-14.2 14.21-124.38-124.38z"/></svg>